<svg id="Hue_Saturation_1_copy_2_Obraz" data-name="Hue/Saturation 1 copy 2 Obraz" xmlns="http://www.w3.org/2000/svg" viewBox="0 0 560.68 97.44"><defs><style>.cls-1{fill:#6d6d6d;}</style></defs><title>mediorama_logo</title><path class="cls-1" d="M292.3,129.32v-24.9l-8.16,16.2H278.5l-8.22-16.2v24.9h-8.34V86.6h8.22l11.16,23.1,11.1-23.1h8.22v42.72H292.3Z" transform="translate(-140.28 -58.92)"/><path class="cls-1" d="M322.9,129.32V86.6H351V94h-19.8v10H348.1v7.44H331.24v10.38H351v7.44H322.9Z" transform="translate(-140.28 -58.92)"/><path class="cls-1" d="M398.2,125.24c-2.82,2.82-6.84,4.08-11.28,4.08H371.5V86.6h15.42c4.44,0,8.46,1.26,11.28,4.08,4.8,4.8,4.32,10.68,4.32,17.1S403,120.44,398.2,125.24Zm-5.82-28.56A7.45,7.45,0,0,0,386.14,94h-6.3v27.84h6.3a7.45,7.45,0,0,0,6.24-2.64c1.56-1.92,1.8-5,1.8-11.46S393.94,98.6,392.38,96.68Z" transform="translate(-140.28 -58.92)"/><path class="cls-1" d="M423.34,129.32V86.6h8.34v42.72h-8.34Z" transform="translate(-140.28 -58.92)"/><path class="cls-1" d="M479.8,125a16.59,16.59,0,0,1-23.1,0c-4.32-4.32-4.2-9.66-4.2-17s-0.12-12.72,4.2-17a16.59,16.59,0,0,1,23.1,0c4.32,4.32,4.26,9.66,4.26,17S484.12,120.68,479.8,125Zm-6.18-29a6.93,6.93,0,0,0-5.34-2.28,7.07,7.07,0,0,0-5.4,2.28c-1.62,1.8-2,3.78-2,12s0.42,10.2,2,12a7.07,7.07,0,0,0,5.4,2.28,6.94,6.94,0,0,0,5.34-2.28c1.62-1.8,2.1-3.78,2.1-12S475.24,97.76,473.62,96Z" transform="translate(-140.28 -58.92)"/><path class="cls-1" d="M527.56,129.32l-8.34-17h-6v17h-8.34V86.6h16.74c8.7,0,13.86,5.94,13.86,13.08a11.5,11.5,0,0,1-7.8,11.22l9.54,18.42h-9.66ZM521.08,94h-7.86v11.28h7.86c3.66,0,6.06-2.34,6.06-5.64S524.74,94,521.08,94Z" transform="translate(-140.28 -58.92)"/><path class="cls-1" d="M580.72,129.32l-2.52-7.56H563l-2.58,7.56h-8.7L567.28,86.6h6.54l15.6,42.72h-8.7Zm-10-30.12-5.4,15.54H576Z" transform="translate(-140.28 -58.92)"/><path class="cls-1" d="M637.36,129.32v-24.9l-8.16,16.2h-5.64l-8.22-16.2v24.9H607V86.6h8.22l11.16,23.1,11.1-23.1h8.22v42.72h-8.34Z" transform="translate(-140.28 -58.92)"/><path class="cls-1" d="M692.25,129.32l-2.52-7.56H674.56L672,129.32h-8.7L678.82,86.6h6.54L701,129.32h-8.7Zm-10-30.12-5.4,15.54h10.62Z" transform="translate(-140.28 -58.92)"/><path class="cls-1" d="M140.28,58.92v97.44H213V58.92H140.28Zm54.18,79.68H158.71V77.29l17.91,18.06,17.84-18.06V138.6Z" transform="translate(-140.28 -58.92)"/></svg>